<svg width="17" height="16" viewBox="0 0 17 16" fill="none" xmlns="http://www.w3.org/2000/svg">
<g clip-path="url(#clip0_329_90)">
<path d="M16.7891 12.3917C16.5562 12.4798 16.2992 12.4796 16.0664 12.3911C15.8337 12.3027 15.6414 12.1322 15.5257 11.9117L13.2257 8.73102L12.8924 8.28636L10.2237 11.9157C10.1151 12.1269 9.93317 12.2913 9.71207 12.3782C9.49097 12.4651 9.24581 12.4685 9.0224 12.3877L12.4611 7.77436L9.2624 3.60702C9.4924 3.52414 9.74393 3.52304 9.97465 3.60391C10.2054 3.68478 10.4012 3.84268 10.5291 4.05102L12.9131 7.27102L15.3104 4.06436C15.4199 3.85688 15.6019 3.69688 15.8216 3.61478C16.0414 3.53267 16.2837 3.53418 16.5024 3.61902L15.2611 5.26636L13.5797 7.45502C13.533 7.49667 13.4957 7.54772 13.4701 7.60482C13.4445 7.66192 13.4313 7.72379 13.4313 7.78636C13.4313 7.84893 13.4445 7.91079 13.4701 7.96789C13.4957 8.02499 13.533 8.07604 13.5797 8.11769L16.7824 12.3924L16.7891 12.3917ZM0.790404 7.71702L1.0704 6.33369C1.83974 3.59836 4.97574 2.46036 7.13307 4.15369C8.3964 5.14636 8.71174 6.55169 8.64974 8.13569H1.53307C1.41774 10.9644 3.45907 12.6724 6.06907 11.7997C6.49218 11.6474 6.8709 11.3925 7.17131 11.0579C7.47172 10.7233 7.68444 10.3194 7.7904 9.88236C7.9284 9.43836 8.15574 9.36236 8.57307 9.49036C8.50353 10.0319 8.31208 10.5507 8.01312 11.0076C7.71416 11.4646 7.31548 11.8477 6.84707 12.1284C6.07335 12.5516 5.18562 12.7193 4.31082 12.6076C3.43602 12.4959 2.61894 12.1104 1.9764 11.5064C1.34109 10.7913 0.957121 9.88802 0.883071 8.93436C0.883071 8.77769 0.829737 8.63102 0.793737 8.49036C0.790492 8.23281 0.788936 7.97525 0.78907 7.71769L0.790404 7.71702ZM1.54174 7.52636H7.97774C7.93774 5.47569 6.64374 4.02102 4.91774 4.00769C2.9964 3.98102 1.62174 5.40369 1.53707 7.51702L1.54174 7.52636Z" fill="black"/>
</g>
<defs>
<clipPath id="clip0_329_90">
<rect width="16" height="16" fill="white" transform="translate(0.789062)"/>
</clipPath>
</defs>
</svg>
