<svg width="16" height="16" viewBox="0 0 16 16" fill="none" xmlns="http://www.w3.org/2000/svg">
<path d="M8.66537 7.76132L9.4127 7.01465C9.53835 6.89312 9.7067 6.8258 9.8815 6.8272C10.0563 6.82859 10.2236 6.89859 10.3473 7.02211C10.471 7.14562 10.5412 7.31279 10.5428 7.48758C10.5445 7.66238 10.4774 7.83083 10.356 7.95665L8.47003 9.84265C8.40826 9.90478 8.33482 9.95408 8.25393 9.98772C8.17305 10.0214 8.0863 10.0387 7.9987 10.0387C7.91109 10.0387 7.82435 10.0214 7.74346 9.98772C7.66258 9.95408 7.58913 9.90478 7.52737 9.84265L5.64137 7.95665C5.57947 7.89467 5.53039 7.8211 5.49692 7.74015C5.46346 7.6592 5.44627 7.57244 5.44633 7.48485C5.44639 7.39725 5.4637 7.31052 5.49728 7.22962C5.53086 7.14871 5.58005 7.07522 5.64203 7.01332C5.70402 6.95142 5.77758 6.90234 5.85854 6.86888C5.93949 6.83541 6.02624 6.81822 6.11384 6.81828C6.20143 6.81834 6.28816 6.83566 6.36907 6.86924C6.44997 6.90282 6.52347 6.952 6.58537 7.01399L7.33203 7.76132V4.00065C7.33203 3.82384 7.40227 3.65427 7.52729 3.52925C7.65232 3.40422 7.82189 3.33398 7.9987 3.33398C8.17551 3.33398 8.34508 3.40422 8.4701 3.52925C8.59513 3.65427 8.66537 3.82384 8.66537 4.00065V7.76132ZM3.9987 11.334H11.9987C12.1755 11.334 12.3451 11.4042 12.4701 11.5292C12.5951 11.6543 12.6654 11.8238 12.6654 12.0007C12.6654 12.1775 12.5951 12.347 12.4701 12.4721C12.3451 12.5971 12.1755 12.6673 11.9987 12.6673H3.9987C3.82189 12.6673 3.65232 12.5971 3.52729 12.4721C3.40227 12.347 3.33203 12.1775 3.33203 12.0007C3.33203 11.8238 3.40227 11.6543 3.52729 11.5292C3.65232 11.4042 3.82189 11.334 3.9987 11.334Z" fill="black"/>
</svg>
