<svg width="20" height="20" viewBox="0 0 20 20" fill="none" xmlns="http://www.w3.org/2000/svg">
<g clip-path="url(#clip0_271_606)">
<path d="M15.3125 0H4.6875C2.09867 0 0 2.09867 0 4.6875V15.3125C0 17.9013 2.09867 20 4.6875 20H15.3125C17.9013 20 20 17.9013 20 15.3125V4.6875C20 2.09867 17.9013 0 15.3125 0Z" fill="#F0DB4F"/>
<path d="M5.25789 16.7132L6.78836 15.787C7.08367 16.3105 7.35227 16.7534 7.99656 16.7534C8.61414 16.7534 9.00352 16.5119 9.00352 15.5722V9.18172H10.883V15.5988C10.883 17.5454 9.74195 18.4315 8.07711 18.4315C6.57359 18.4315 5.70086 17.6528 5.25781 16.713M11.9039 16.5118L13.4342 15.6258C13.8371 16.2837 14.3607 16.767 15.287 16.767C16.0658 16.767 16.5623 16.3776 16.5623 15.8405C16.5623 15.1962 16.0522 14.9679 15.193 14.5921L14.7232 14.3906C13.3672 13.8134 12.4677 13.0884 12.4677 11.558C12.4677 10.1483 13.5417 9.07422 15.2199 9.07422C16.4148 9.07422 17.274 9.49047 17.8915 10.5779L16.4281 11.5177C16.1059 10.9404 15.757 10.7122 15.2199 10.7122C14.6695 10.7122 14.3204 11.0613 14.3204 11.5177C14.3204 12.0815 14.6695 12.3098 15.4749 12.6589L15.9448 12.8602C17.5423 13.545 18.4419 14.243 18.4419 15.8137C18.4419 17.5054 17.1128 18.4316 15.3273 18.4316C13.582 18.4316 12.4543 17.5993 11.9039 16.5118Z" fill="#323330"/>
</g>
<defs>
<clipPath id="clip0_271_606">
<rect width="20" height="20" fill="white"/>
</clipPath>
</defs>
</svg>
