<svg width="16" height="16" viewBox="0 0 16 16" fill="none" xmlns="http://www.w3.org/2000/svg">
<g clip-path="url(#clip0_329_80)">
<path d="M8 16C12.4183 16 16 12.4183 16 8C16 3.58172 12.4183 0 8 0C3.58172 0 0 3.58172 0 8C0 12.4183 3.58172 16 8 16Z" fill="black"/>
<path d="M13.2904 14.0025L6.14666 4.80078H4.80078V11.1982H5.87753V6.16816L12.445 14.6537C12.741 14.4556 13.0234 14.2381 13.2904 14.0025Z" fill="url(#paint0_linear_329_80)"/>
<path d="M10.2227 4.80078H11.2893V11.2008H10.2227V4.80078Z" fill="url(#paint1_linear_329_80)"/>
</g>
<defs>
<linearGradient id="paint0_linear_329_80" x1="9.68966" y1="10.3563" x2="12.8452" y2="14.2674" gradientUnits="userSpaceOnUse">
<stop stop-color="white"/>
<stop offset="1" stop-color="white" stop-opacity="0"/>
</linearGradient>
<linearGradient id="paint1_linear_329_80" x1="10.7559" y1="4.80077" x2="10.7381" y2="9.50077" gradientUnits="userSpaceOnUse">
<stop stop-color="white"/>
<stop offset="1" stop-color="white" stop-opacity="0"/>
</linearGradient>
<clipPath id="clip0_329_80">
<rect width="16" height="16" fill="white"/>
</clipPath>
</defs>
</svg>
