<svg width="21" height="20" viewBox="0 0 21 20" fill="none" xmlns="http://www.w3.org/2000/svg">
<g clip-path="url(#clip0_271_645)">
<path d="M10.4979 19.9629C10.1874 19.9629 9.89763 19.8895 9.62854 19.7611L6.87545 18.3123C6.46148 18.1106 6.66846 18.0372 6.79266 18.0005C7.35152 17.8355 7.45502 17.7988 8.03458 17.5053C8.09676 17.4686 8.17955 17.487 8.24157 17.5236L10.353 18.6424C10.4358 18.6791 10.5393 18.6791 10.6014 18.6424L18.8606 14.4059C18.9434 14.3692 18.9848 14.2959 18.9848 14.2042V5.74945C18.9848 5.65775 18.9434 5.58439 18.8606 5.54772L10.6014 1.32952C10.5186 1.29284 10.4151 1.29284 10.353 1.32952L2.0938 5.54779C2.01101 5.58446 1.96961 5.67616 1.96961 5.74952V14.2042C1.96961 14.2775 2.01101 14.3692 2.0938 14.4059L4.35013 15.5613C5.57143 16.1115 6.33721 15.4696 6.33721 14.8277V6.48301C6.33721 6.37298 6.44078 6.26294 6.58567 6.26294H7.64138C7.76558 6.26294 7.88977 6.35464 7.88977 6.48301V14.8276C7.88977 16.2765 6.99964 17.1201 5.44716 17.1201C4.97109 17.1201 4.59851 17.1201 3.54287 16.6616L1.36935 15.5613C0.83118 15.2861 0.5 14.7726 0.5 14.2225V5.76785C0.5 5.21768 0.83118 4.70419 1.36935 4.42903L9.62854 0.192561C10.146 -0.0641869 10.8498 -0.0641869 11.3672 0.192561L19.6264 4.42903C20.1646 4.70412 20.4958 5.21761 20.4958 5.76785V14.2225C20.4958 14.7727 20.1646 15.2862 19.6264 15.5613L11.3672 19.7979C11.0982 19.9079 10.7877 19.9629 10.4979 19.9629M13.0439 14.1492C9.42148 14.1492 8.67632 12.682 8.67632 11.4349C8.67632 11.3249 8.77982 11.2148 8.92471 11.2148H10.001C10.1252 11.2148 10.2288 11.2882 10.2288 11.3982C10.3944 12.3702 10.8705 12.8471 13.0646 12.8471C14.8034 12.8471 15.5486 12.4987 15.5486 11.6734C15.5486 11.1965 15.3416 10.8481 12.6299 10.6096C10.3737 10.4079 8.96611 9.96772 8.96611 8.37221C8.96611 6.88661 10.3736 6.00633 12.7334 6.00633C15.383 6.00633 16.6871 6.81325 16.8526 8.57387C16.8526 8.62889 16.8319 8.68391 16.7905 8.73893C16.7492 8.77561 16.6871 8.81228 16.625 8.81228H15.5486C15.4451 8.81228 15.3416 8.73893 15.3209 8.64723C15.0725 7.63858 14.4308 7.30848 12.7334 7.30848C10.8291 7.30848 10.6014 7.89533 10.6014 8.33547C10.6014 8.86737 10.8705 9.03235 13.4372 9.32578C15.9833 9.6192 17.1838 10.0411 17.1838 11.6183C17.1631 13.2322 15.6728 14.1492 13.0439 14.1492Z" fill="#539E43"/>
</g>
<defs>
<clipPath id="clip0_271_645">
<rect width="20" height="20" fill="white" transform="translate(0.5)"/>
</clipPath>
</defs>
</svg>
