<svg width="23" height="20" viewBox="0 0 23 20" fill="none" xmlns="http://www.w3.org/2000/svg">
<g clip-path="url(#clip0_271_612)">
<path d="M18.733 6.47577C18.494 6.39378 18.253 6.31782 18.0101 6.24797C18.0509 6.0813 18.0885 5.91665 18.1218 5.7549C18.669 3.09867 18.3113 0.958757 17.0894 0.254195C15.918 -0.421243 14.0021 0.283055 12.0672 1.967C11.8765 2.13326 11.69 2.30431 11.508 2.47998C11.3861 2.36317 11.2621 2.24861 11.1359 2.13639C9.10804 0.335862 7.07541 -0.422998 5.85488 0.283581C4.68444 0.961125 4.33786 2.97279 4.8305 5.49016C4.87951 5.73948 4.93485 5.98751 4.99646 6.23402C4.70874 6.31577 4.43111 6.40279 4.16541 6.49542C1.78786 7.32437 0.269531 8.62341 0.269531 9.97086C0.269531 11.3625 1.89953 12.7584 4.37585 13.6048C4.57661 13.6731 4.77904 13.7365 4.98295 13.7947C4.91673 14.0602 4.85793 14.3275 4.80664 14.5963C4.33699 17.07 4.70374 19.0341 5.87102 19.7074C7.07664 20.4026 9.10015 19.6881 11.0704 17.9657C11.2302 17.8257 11.3864 17.6817 11.539 17.5338C11.7362 17.7241 11.9386 17.9088 12.146 18.0877C14.0546 19.73 15.9395 20.3931 17.1057 19.7181C18.3101 19.0208 18.7016 16.9108 18.1934 14.3437C18.1534 14.1426 18.1085 13.9424 18.0587 13.7435C18.2008 13.7014 18.3403 13.6581 18.4763 13.613C21.0507 12.7601 22.7257 11.3811 22.7257 9.97086C22.7257 8.61849 21.1583 7.31069 18.733 6.47577ZM18.1746 12.7024C18.0518 12.7431 17.9258 12.7823 17.7974 12.8204C17.5132 11.9207 17.1297 10.964 16.6603 9.97551C17.1082 9.0106 17.477 8.06612 17.7532 7.17227C17.983 7.23876 18.2058 7.30884 18.4208 7.38279C20.4988 8.09823 21.7664 9.15586 21.7664 9.97086C21.7664 10.8389 20.3974 11.9659 18.1746 12.7024ZM17.2523 14.53C17.4771 15.6651 17.5091 16.6914 17.3602 17.4938C17.2265 18.2147 16.9576 18.6953 16.625 18.8879C15.9173 19.2975 14.4039 18.7651 12.7717 17.3605C12.5788 17.1941 12.3905 17.0224 12.2071 16.8456C12.8399 16.1536 13.4722 15.3491 14.0894 14.4556C15.1751 14.3593 16.2007 14.2017 17.1308 13.9867C17.1756 14.1668 17.2161 14.348 17.2523 14.53ZM7.92532 18.8171C7.23392 19.0612 6.68322 19.0682 6.35032 18.8763C5.64199 18.4678 5.34751 16.8907 5.74918 14.7752C5.79693 14.5253 5.8516 14.2767 5.91313 14.0297C6.83295 14.2332 7.85111 14.3795 8.93927 14.4678C9.56067 15.3421 10.2113 16.1457 10.867 16.8494C10.7276 16.9842 10.585 17.1156 10.4392 17.2434C9.56786 18.005 8.69479 18.5453 7.92532 18.8171ZM4.6862 12.6971C3.5912 12.3228 2.6869 11.8364 2.06708 11.3056C1.51006 10.8287 1.22892 10.3551 1.22892 9.97086C1.22892 9.15314 2.44795 8.11016 4.4812 7.4013C4.72795 7.31534 4.9862 7.23419 5.25418 7.15805C5.53523 8.07209 5.90383 9.02779 6.34865 9.99419C5.89804 10.9749 5.52418 11.9459 5.24041 12.8707C5.05428 12.8174 4.86948 12.7595 4.6862 12.6971ZM5.77199 5.30586C5.34997 3.14911 5.63023 1.52218 6.33558 1.11384C7.08681 0.678932 8.74804 1.29902 10.499 2.85376C10.6132 2.95537 10.7255 3.05904 10.8359 3.16472C10.1835 3.86534 9.53883 4.66297 8.92295 5.53209C7.86681 5.62998 6.85585 5.78718 5.92637 5.99779C5.86911 5.76851 5.81763 5.53774 5.77199 5.30586ZM15.4586 7.69788C15.239 7.31866 15.0113 6.94422 14.7757 6.57481C15.4922 6.66542 16.1787 6.78569 16.8233 6.9327C16.6298 7.55305 16.3886 8.20156 16.1046 8.86648C15.8971 8.47268 15.6817 8.08307 15.4586 7.69788ZM11.5084 3.85042C11.9508 4.32981 12.394 4.86498 12.8299 5.44569C11.9457 5.40393 11.06 5.40375 10.1758 5.44516C10.6121 4.86981 11.059 4.33534 11.5084 3.85042ZM7.53286 7.70437C7.31254 8.08646 7.10117 8.47364 6.89892 8.8656C6.61962 8.20306 6.38058 7.55156 6.18541 6.92244C6.82611 6.77911 7.50936 6.66191 8.22129 6.57297C7.98299 6.94463 7.75345 7.32193 7.53286 7.70437ZM8.24172 13.437C7.5062 13.3549 6.81269 13.2438 6.17216 13.1043C6.37041 12.4639 6.61471 11.7986 6.90006 11.1218C7.10311 11.5141 7.31537 11.9015 7.53664 12.2838C7.76418 12.6767 7.99979 13.0617 8.24172 13.437ZM11.5349 16.1589C11.0801 15.6684 10.6266 15.1257 10.1837 14.542C10.6137 14.5588 11.0521 14.5674 11.4976 14.5674C11.9553 14.5674 12.4078 14.5572 12.8531 14.5374C12.4158 15.1316 11.9744 15.6751 11.5349 16.1589ZM16.1137 11.0873C16.4138 11.7715 16.6668 12.4333 16.8677 13.0627C16.2166 13.2113 15.5137 13.3309 14.773 13.4198C15.0103 13.0435 15.2401 12.6626 15.4623 12.2772C15.6882 11.8854 15.9054 11.4887 16.1137 11.0873ZM14.6314 11.7979C14.2912 12.3888 13.9319 12.9685 13.5541 13.536C12.8697 13.5845 12.1837 13.6086 11.4976 13.6082C10.7987 13.6082 10.119 13.5865 9.46444 13.544C9.07675 12.9778 8.71061 12.3971 8.36681 11.8031C8.02464 11.2124 7.70511 10.6088 7.40874 9.99376C7.70435 9.37857 8.023 8.77472 8.36401 8.18349L8.36392 8.18358C8.70479 7.5922 9.06801 7.01397 9.45278 6.45016C10.1206 6.39963 10.8054 6.37332 11.4975 6.37332C12.1928 6.37332 12.8786 6.3999 13.5462 6.45077C13.9271 7.01374 14.288 7.58998 14.6282 8.17841C14.9704 8.76833 15.2932 9.36924 15.5963 9.98016C15.2963 10.5973 14.9745 11.2036 14.6314 11.7979ZM16.6103 1.08525C17.3623 1.51893 17.6547 3.26779 17.1823 5.56121C17.1521 5.70753 17.1182 5.85656 17.0814 6.0077C16.1496 5.79262 15.138 5.6327 14.0787 5.53332C13.4617 4.65463 12.8223 3.85577 12.1805 3.1642C12.3487 3.00205 12.5209 2.8441 12.697 2.69051C14.3549 1.24779 15.9044 0.678143 16.6103 1.08525ZM11.4976 7.9656C12.6051 7.9656 13.5029 8.86341 13.5029 9.97086C13.5029 11.0783 12.6051 11.9761 11.4976 11.9761C10.3901 11.9761 9.49234 11.0783 9.49234 9.97086C9.49234 8.86341 10.3901 7.9656 11.4976 7.9656Z" fill="#00D8FF"/>
</g>
<defs>
<clipPath id="clip0_271_612">
<rect width="22.46" height="20" fill="white" transform="translate(0.269531)"/>
</clipPath>
</defs>
</svg>
