<svg width="17" height="16" viewBox="0 0 17 16" fill="none" xmlns="http://www.w3.org/2000/svg">
<g clip-path="url(#clip0_329_86)">
<path d="M11.6315 11.13C12.251 11.0659 12.721 10.5319 12.6996 9.89095C12.6783 9.2501 12.1442 8.73738 11.5033 8.73738H11.4607C10.7984 8.75875 10.2857 9.31416 10.3071 9.97639C10.3285 10.2969 10.4566 10.5746 10.6489 10.7668C9.92256 12.1982 8.81174 13.2449 7.14551 14.1208C6.01331 14.7189 4.83843 14.9326 3.66354 14.7831C2.70223 14.6549 1.95456 14.2277 1.48452 13.5226C0.800983 12.4759 0.736917 11.3436 1.3137 10.2114C1.71961 9.39961 2.36039 8.80144 2.76629 8.50236C2.68085 8.22465 2.55265 7.75469 2.48859 7.41292C-0.608919 9.656 -0.28846 12.6895 0.651475 14.1208C1.35639 15.189 2.78767 15.8512 4.36846 15.8512C4.79567 15.8512 5.22288 15.8085 5.65016 15.7017C8.38452 15.1676 10.4567 13.544 11.6315 11.13ZM15.3913 8.48105C13.7677 6.57974 11.3752 5.53298 8.64085 5.53298H8.29908C8.10682 5.14846 7.70092 4.89207 7.25233 4.89207H7.20957C6.54741 4.91344 6.03475 5.46885 6.05606 6.13115C6.07744 6.772 6.61147 7.28472 7.25233 7.28472H7.29502C7.76498 7.26334 8.17088 6.96426 8.34177 6.55836H8.72629C10.3498 6.55836 11.8879 7.02833 13.2765 7.94695C14.3445 8.65193 15.1136 9.57056 15.5408 10.6814C15.9039 11.5786 15.8826 12.4545 15.498 13.2022C14.8999 14.3344 13.8959 14.954 12.5715 14.954C11.717 14.954 10.9052 14.6976 10.478 14.5053C10.243 14.7189 9.81574 15.0607 9.51665 15.2744C10.4353 15.7016 11.3752 15.9367 12.2724 15.9367C14.3231 15.9367 15.8399 14.8044 16.4167 13.6722C17.0361 12.4331 16.9934 10.2969 15.3913 8.48105ZM4.53934 11.4931C4.56072 12.134 5.09475 12.6467 5.73561 12.6467H5.77836C6.44059 12.6254 6.95324 12.0699 6.93187 11.4077C6.91056 10.7668 6.37646 10.2541 5.73561 10.2541H5.69292C5.65016 10.2541 5.58603 10.2541 5.54341 10.2754C4.66754 8.82275 4.30439 7.24197 4.43259 5.53292C4.51797 4.25115 4.94524 3.14026 5.69292 2.22164C6.31239 1.43121 7.50865 1.04669 8.32046 1.02538C10.5848 0.982623 11.546 3.80249 11.6102 4.93475C11.8879 4.99882 12.3578 5.14839 12.6783 5.25521C12.4219 1.79449 10.2857 0 8.23501 0C6.31239 0 4.53934 1.38859 3.83436 3.43941C2.85174 6.17384 3.49259 8.80144 4.68885 10.8736C4.5821 11.0231 4.51797 11.2581 4.53934 11.4931Z" fill="#764ABC"/>
</g>
<defs>
<clipPath id="clip0_329_86">
<rect width="16.79" height="16" fill="white"/>
</clipPath>
</defs>
</svg>
