<svg width="16" height="16" viewBox="0 0 16 16" fill="none" xmlns="http://www.w3.org/2000/svg">
<path d="M13.4184 0.251545L12.5542 0.30542L12.6216 2.10255C12.6251 2.20192 12.5104 2.25992 12.4323 2.1983L11.8536 1.74205L11.1679 2.2623C11.1503 2.2757 11.1292 2.28381 11.1071 2.28566C11.085 2.28751 11.0628 2.28304 11.0432 2.27276C11.0235 2.26248 11.0072 2.24682 10.9962 2.22761C10.9851 2.2084 10.9797 2.18644 10.9807 2.1643L11.0578 0.39892L2.48431 0.935045C2.28036 0.947753 2.08947 1.03968 1.95237 1.19121C1.81528 1.34274 1.74285 1.54185 1.75056 1.74605L2.23306 14.6008C2.24042 14.7972 2.32138 14.9837 2.45986 15.1231C2.59834 15.2626 2.78421 15.3449 2.98056 15.3537L13.4321 15.8229C13.5377 15.8276 13.6432 15.8108 13.7422 15.7737C13.8412 15.7365 13.9317 15.6797 14.0082 15.6067C14.0847 15.5336 14.1456 15.4458 14.1872 15.3486C14.2288 15.2514 14.2502 15.1467 14.2502 15.0409V1.03305C14.2502 0.926087 14.2284 0.820253 14.1859 0.722084C14.1434 0.623916 14.0813 0.535498 14.0033 0.462295C13.9254 0.389052 13.8333 0.33256 13.7327 0.296312C13.6321 0.260063 13.5251 0.244827 13.4184 0.251545ZM8.23593 2.89992C10.2744 2.89992 11.3877 3.9903 11.3877 6.0648C11.1122 6.27892 9.06018 6.4248 9.06018 6.12017C9.10343 4.95767 8.58306 4.9068 8.29393 4.9068C8.01918 4.9068 7.55656 4.98955 7.55656 5.6123C7.55656 7.1483 11.5178 7.06542 11.5178 10.1653C11.5178 11.909 10.1009 12.8722 8.29393 12.8722C6.42893 12.8722 4.79931 12.1177 4.98331 9.50179C5.05556 9.19467 7.42643 9.26767 7.42643 9.50179C7.39768 10.5812 7.64331 10.8987 8.26481 10.8987C8.74193 10.8987 8.95893 10.6358 8.95893 10.1929C8.95893 8.61529 5.05556 8.56005 5.05556 5.6678C5.05556 4.00717 6.19768 2.89992 8.23593 2.89992Z" fill="#FF4785"/>
</svg>
