<svg width="20" height="20" viewBox="0 0 20 20" fill="none" xmlns="http://www.w3.org/2000/svg">
<g clip-path="url(#clip0_327_74)">
<path d="M10 4C7.33328 4 5.66719 5.33281 5 7.99953C5.99969 6.66656 7.16672 6.16672 8.49969 6.5C9.26078 6.68969 9.80469 7.24156 10.407 7.85313C11.3873 8.84797 12.522 9.99969 15 9.99969C17.6666 9.99969 19.3328 8.66672 20 5.99937C19.0002 7.33312 17.8333 7.83297 16.5002 7.49969C15.7392 7.30984 15.1959 6.75813 14.5928 6.14656C13.6131 5.15172 12.4787 4 10 4ZM5 9.99969C2.33344 9.99969 0.667187 11.3327 0 14C0.999687 12.6662 2.16656 12.1664 3.49969 12.4997C4.26078 12.6895 4.80469 13.2413 5.40703 13.8528C6.38734 14.8477 7.52203 15.9994 10 15.9994C12.6666 15.9994 14.3328 14.6666 15 11.9998C14.0002 13.3328 12.8333 13.8327 11.5002 13.4994C10.7392 13.3097 10.1959 12.7578 9.59281 12.1463C8.61312 11.1514 7.47875 9.99969 5 9.99969Z" fill="#38BDF8"/>
</g>
<defs>
<clipPath id="clip0_327_74">
<rect width="20" height="20" fill="white"/>
</clipPath>
</defs>
</svg>
