<svg width="20" height="20" viewBox="0 0 20 20" fill="none" xmlns="http://www.w3.org/2000/svg">
<g clip-path="url(#clip0_271_630)">
<path d="M15.3125 0H4.6875C2.09867 0 0 2.09867 0 4.6875V15.3125C0 17.9013 2.09867 20 4.6875 20H15.3125C17.9013 20 20 17.9013 20 15.3125V4.6875C20 2.09867 17.9013 0 15.3125 0Z" fill="#007ACC"/>
<path d="M4.4243 10.066L4.41797 10.885H7.02109V18.2818H8.8625V10.885H11.4656V10.0818C11.4656 9.63739 11.4562 9.26598 11.4434 9.25645C11.4339 9.2438 9.84977 9.23739 7.92914 9.24059L4.43391 9.25012L4.4243 10.066ZM16.1396 9.22684C16.6475 9.35387 17.0348 9.57926 17.3904 9.94747C17.5745 10.1443 17.8475 10.5031 17.8698 10.5888C17.8761 10.6142 17.0062 11.1983 16.4793 11.5253C16.4602 11.538 16.384 11.4554 16.2983 11.3285C16.0412 10.9539 15.7713 10.7919 15.3586 10.7634C14.7523 10.7221 14.3618 11.0396 14.365 11.5697C14.365 11.7253 14.3872 11.8173 14.4507 11.9443C14.584 12.2205 14.8316 12.3856 15.6095 12.7221C17.0412 13.338 17.6538 13.7443 18.0348 14.3221C18.4602 14.9665 18.5555 15.9951 18.2666 16.7602C17.9491 17.5919 17.1618 18.157 16.0538 18.3443C15.711 18.4047 14.8983 18.3951 14.5301 18.3285C13.7269 18.1856 12.965 17.7888 12.4952 17.2682C12.311 17.065 11.9523 16.5348 11.9745 16.4967C11.984 16.484 12.0666 16.4332 12.1586 16.3793C12.2475 16.3285 12.5841 16.1348 12.9015 15.9507L13.4761 15.6173L13.5967 15.7951C13.765 16.0522 14.1332 16.4047 14.3555 16.5221C14.9935 16.8586 15.8698 16.811 16.3015 16.4237C16.4856 16.2554 16.5618 16.0808 16.5618 15.8237C16.5618 15.5919 16.5332 15.4904 16.4126 15.3157C16.257 15.0936 15.9396 14.9062 15.038 14.5157C14.0063 14.0713 13.5618 13.7951 13.1555 13.357C12.9205 13.1031 12.6983 12.6967 12.6062 12.357C12.5301 12.0745 12.511 11.3665 12.5713 11.0808C12.784 10.084 13.5364 9.3888 14.6221 9.18239C14.9745 9.11575 15.7935 9.14114 16.1396 9.22684Z" fill="white"/>
</g>
<defs>
<clipPath id="clip0_271_630">
<rect width="20" height="20" fill="white"/>
</clipPath>
</defs>
</svg>
